<?xml version="1.0" encoding="UTF-8" ?>
<!DOCTYPE svg PUBLIC "-//W3C//DTD SVG 1.1//EN" "http://www.w3.org/Graphics/SVG/1.1/DTD/svg11.dtd">
<svg width="806pt" height="228pt" viewBox="0 0 806 228" version="1.1" xmlns="http://www.w3.org/2000/svg">
<path fill="none" d=" M 0.00 0.00 L 806.00 0.00 L 806.00 228.00 L 0.00 228.00 L 0.00 0.00 Z" />
<path fill="#ffffff" d=" M 90.52 33.49 C 97.17 27.57 102.68 19.83 111.11 16.30 C 113.26 17.23 113.58 19.94 113.01 21.95 C 111.59 28.79 106.11 33.68 101.05 38.03 C 95.46 42.90 88.97 46.64 83.59 51.74 C 78.48 57.43 74.38 65.47 76.78 73.23 C 77.23 76.05 80.95 74.84 81.78 72.89 C 86.03 65.78 86.28 56.87 91.25 50.12 C 92.39 48.42 94.45 47.90 96.21 47.12 C 97.39 48.89 98.53 50.83 98.37 53.05 C 98.19 61.09 94.16 68.30 91.93 75.87 C 89.62 84.30 88.32 93.02 85.17 101.20 C 83.81 104.77 81.31 107.92 80.87 111.81 C 79.56 121.58 81.24 131.46 80.30 141.24 C 75.28 145.29 68.28 142.55 62.55 141.81 C 62.56 135.45 61.77 129.14 61.12 122.83 C 59.60 111.60 59.45 100.25 58.79 88.96 C 58.66 82.00 58.29 75.03 58.80 68.08 C 58.89 64.32 61.41 61.35 63.64 58.56 C 71.71 49.30 81.25 41.49 90.52 33.49 Z" />
<path fill="#ffffff" d=" M 117.82 24.23 C 117.00 21.73 116.14 18.09 118.72 16.35 C 120.50 16.55 122.02 17.59 123.46 18.57 C 129.03 22.56 133.64 27.67 138.51 32.43 C 148.43 41.14 158.88 49.40 167.39 59.56 C 169.32 62.05 171.40 64.77 171.41 68.08 C 172.13 81.75 171.02 95.43 170.33 109.08 C 169.55 119.99 167.73 130.84 167.64 141.80 C 161.75 142.74 155.22 144.87 149.68 141.59 C 149.13 131.69 150.46 121.76 149.31 111.89 C 148.90 107.85 146.25 104.59 144.91 100.86 C 142.00 93.09 140.68 84.87 138.57 76.87 C 136.44 69.22 132.48 62.05 131.80 54.03 C 131.46 51.56 132.55 49.26 133.70 47.15 C 135.56 47.82 137.68 48.36 138.84 50.12 C 143.96 56.96 144.00 66.20 148.69 73.26 C 149.49 74.87 151.39 74.70 152.90 74.97 C 155.52 68.60 153.45 61.50 149.83 55.99 C 145.93 49.34 138.77 45.84 133.00 41.09 C 127.18 36.30 120.63 31.49 117.82 24.23 Z" />
<path fill="#ffffff" d=" M 176.11 26.01 C 184.19 30.00 193.63 36.13 194.32 46.03 C 191.19 42.55 187.05 40.37 183.28 37.70 C 180.13 34.43 176.14 30.93 176.11 26.01 Z" />
<path fill="#ffffff" d=" M 34.96 45.88 C 35.95 35.99 45.25 30.05 53.31 25.92 C 53.27 29.24 51.36 31.96 49.29 34.36 C 45.56 39.42 39.20 41.33 34.96 45.88 Z" />
<path fill="#ffffff" d=" M 193.89 30.84 C 199.27 33.82 202.16 39.58 203.84 45.26 C 205.79 52.07 205.25 59.30 203.54 66.10 C 200.82 62.98 197.80 60.12 194.39 57.77 C 188.08 53.32 183.30 47.00 179.54 40.33 C 183.87 42.71 188.82 44.13 192.48 47.59 C 195.53 50.35 197.70 53.89 200.53 56.86 C 199.17 52.64 197.26 48.54 196.86 44.08 C 196.50 39.54 195.11 35.20 193.89 30.84 Z" />
<path fill="#ffffff" d=" M 26.74 41.84 C 28.45 37.32 31.30 33.16 35.54 30.69 C 34.31 35.03 32.94 39.37 32.49 43.88 C 32.14 48.45 30.15 52.64 28.77 56.95 C 32.18 53.29 34.74 48.75 38.98 45.92 C 42.36 43.67 46.18 42.24 49.79 40.42 C 46.01 47.14 41.25 53.56 34.77 57.92 C 31.42 60.21 28.48 63.04 25.81 66.09 C 23.76 58.17 23.44 49.47 26.74 41.84 Z" />
<path fill="#ffffff" d=" M 605.53 50.57 C 616.35 41.42 631.13 38.27 645.00 39.48 C 655.87 40.25 667.03 44.14 674.43 52.46 C 681.16 59.84 684.22 69.74 685.37 79.49 C 675.23 79.48 665.09 79.51 654.96 79.50 C 653.95 74.31 651.43 68.98 646.57 66.41 C 639.98 63.01 630.93 64.16 625.99 69.91 C 621.59 74.86 620.06 81.64 619.54 88.07 C 619.02 96.65 619.83 105.90 624.81 113.19 C 629.44 119.87 639.15 121.83 646.27 118.23 C 651.72 115.25 653.82 108.95 655.01 103.24 C 665.26 103.20 675.52 103.08 685.78 103.19 C 685.60 115.46 679.74 127.50 670.11 135.13 C 659.33 144.01 644.53 146.71 630.94 144.77 C 619.24 143.35 607.89 137.80 600.30 128.67 C 591.51 118.32 587.81 104.40 588.18 91.00 C 588.16 75.97 593.74 60.34 605.53 50.57 Z" />
<path fill="#ffffff" d=" M 107.95 45.18 C 110.02 41.21 115.49 40.99 119.17 42.57 C 122.64 44.29 122.99 48.73 122.89 52.14 C 122.97 55.95 119.81 58.55 118.66 61.94 C 119.14 66.57 124.49 67.00 127.21 69.82 C 129.48 71.87 129.89 75.09 129.89 77.98 C 129.88 92.00 129.88 106.02 129.90 120.04 C 129.85 121.56 129.96 123.32 128.78 124.47 C 126.86 125.15 124.62 124.83 122.85 125.79 C 122.57 131.45 123.11 137.13 122.65 142.77 C 117.64 143.89 112.34 143.04 107.22 143.21 C 106.53 137.34 106.96 131.42 106.87 125.53 C 104.86 125.16 102.66 125.28 100.81 124.31 C 99.67 123.14 99.82 121.44 99.76 119.95 C 99.77 105.99 99.77 92.02 99.77 78.06 C 99.78 74.63 100.66 70.70 103.81 68.77 C 106.04 67.06 109.40 66.42 110.59 63.63 C 111.72 61.28 109.56 59.27 108.55 57.35 C 106.15 53.76 106.40 49.05 107.95 45.18 Z" />
<path fill="#ffffff" d=" M 262.20 41.67 C 272.61 41.74 283.02 41.69 293.44 41.69 C 293.47 61.75 293.39 81.82 293.52 101.89 C 293.66 108.09 295.01 115.74 301.33 118.57 C 306.65 120.68 313.44 120.67 318.10 117.04 C 322.60 113.05 322.96 106.56 323.24 100.97 C 323.33 81.22 323.26 61.47 323.28 41.71 C 333.68 41.69 344.09 41.71 354.50 41.69 C 354.50 63.13 354.50 84.58 354.49 106.02 C 354.30 116.36 351.38 127.36 343.57 134.61 C 335.68 142.06 324.53 144.57 314.00 145.22 C 302.90 145.73 291.33 144.99 281.16 140.10 C 273.95 136.62 268.10 130.37 265.32 122.84 C 262.48 115.94 262.13 108.36 262.16 100.99 C 262.21 81.21 262.14 61.44 262.20 41.67 Z" />
<path fill="#ffffff" d=" M 373.18 41.70 C 383.89 41.72 394.61 41.71 405.33 41.68 C 415.26 59.78 425.05 77.95 435.08 95.99 C 434.87 77.90 434.93 59.82 434.95 41.73 C 444.80 41.69 454.65 41.68 464.50 41.73 C 464.49 75.45 464.51 109.18 464.49 142.90 C 454.36 142.95 444.23 142.89 434.10 142.93 C 423.63 124.38 413.43 105.67 402.75 87.24 C 402.54 105.76 402.72 124.28 402.67 142.80 C 392.83 142.68 382.98 143.22 373.15 142.87 C 373.21 109.15 373.15 75.42 373.18 41.70 Z" />
<path fill="#ffffff" d=" M 483.55 41.68 C 493.96 41.72 504.37 41.71 514.78 41.68 C 514.78 53.36 514.78 65.03 514.80 76.71 C 524.48 76.74 534.15 76.69 543.83 76.76 C 543.84 65.07 543.82 53.38 543.85 41.70 C 554.31 41.69 564.77 41.76 575.23 41.68 C 575.20 75.39 575.25 109.10 575.22 142.81 C 564.76 142.83 554.30 143.01 543.84 142.88 C 543.81 129.50 543.85 116.12 543.83 102.73 C 534.14 102.69 524.45 102.73 514.76 102.71 C 514.80 116.08 514.82 129.45 514.84 142.81 C 504.40 142.88 493.97 142.91 483.53 142.93 C 483.54 109.18 483.52 75.43 483.55 41.68 Z" />
<path fill="#ffffff" d=" M 698.61 41.70 C 719.07 41.72 739.53 41.69 760.00 41.70 C 768.89 42.05 778.17 45.05 784.26 51.82 C 790.26 58.24 792.12 67.69 790.62 76.17 C 789.42 84.57 784.30 92.73 776.21 95.97 C 782.12 98.48 786.29 103.87 788.37 109.82 C 792.52 120.39 789.78 132.28 794.03 142.83 C 783.63 142.83 773.23 142.87 762.84 142.85 C 760.41 134.71 760.79 126.11 759.09 117.84 C 758.20 112.85 754.37 108.20 749.07 107.79 C 742.64 107.42 736.19 107.75 729.76 107.63 C 729.83 119.37 729.78 131.12 729.81 142.86 C 719.41 142.85 709.01 142.98 698.62 142.91 C 698.59 109.17 698.64 75.44 698.61 41.70 Z" />
<path fill="#ffffff" d=" M 208.38 46.75 C 212.98 51.66 213.96 58.66 214.99 65.04 C 215.59 74.21 213.61 83.57 209.08 91.61 C 207.99 88.89 206.88 86.15 205.24 83.70 C 202.71 79.69 198.89 76.69 196.51 72.57 C 193.56 68.17 192.79 62.81 190.23 58.22 C 198.22 63.78 205.79 70.88 208.70 80.47 C 208.32 73.36 206.39 66.24 207.76 59.12 C 208.61 55.05 208.48 50.88 208.38 46.75 Z" />
<path fill="#ffffff" d=" M 15.89 57.08 C 16.88 53.26 18.31 49.41 21.20 46.60 C 20.97 51.21 20.93 55.86 21.79 60.41 C 23.08 67.11 21.04 73.79 20.55 80.46 C 23.69 70.89 31.21 63.84 39.19 58.15 C 36.17 64.16 34.84 71.08 30.22 76.21 C 26.25 80.45 22.73 85.13 20.58 90.56 L 21.41 91.16 C 21.13 91.28 20.56 91.50 20.28 91.62 C 14.58 81.23 12.52 68.56 15.89 57.08 Z" />
<path fill="none" d=" M 729.78 65.83 C 737.57 66.09 745.51 65.08 753.18 66.85 C 757.29 67.81 760.31 71.82 759.78 76.08 C 760.19 80.75 756.39 84.72 751.91 85.33 C 744.58 86.29 737.15 85.61 729.78 85.80 C 729.80 79.14 729.78 72.49 729.78 65.83 Z" />
<path fill="#ffffff" d=" M 7.58 73.97 C 9.58 80.52 14.41 85.65 16.59 92.12 C 18.58 96.77 19.35 101.87 21.81 106.32 C 22.11 100.32 22.94 94.15 25.87 88.82 C 27.75 85.54 29.36 82.10 31.62 79.06 C 33.87 86.44 31.73 94.29 27.70 100.62 C 25.37 103.92 24.36 107.85 23.65 111.76 C 17.91 107.96 14.08 101.98 11.14 95.88 C 8.06 89.11 5.61 81.41 7.58 73.97 Z" />
<path fill="#ffffff" d=" M 222.00 73.90 C 223.84 83.22 220.41 92.56 215.76 100.52 C 213.21 104.93 209.81 108.82 205.75 111.91 C 204.99 107.88 204.01 103.81 201.62 100.39 C 197.58 94.14 195.70 86.37 197.72 79.07 C 203.41 87.07 207.66 96.34 207.76 106.33 C 210.92 99.16 212.26 91.18 216.53 84.49 C 218.77 81.19 220.41 77.55 222.00 73.90 Z" />
<path fill="#ffffff" d=" M 32.36 98.21 C 35.20 104.07 35.73 110.67 36.21 117.07 C 36.59 123.73 34.90 130.24 34.01 136.79 C 20.34 131.86 10.80 118.19 9.39 103.93 C 11.80 108.54 15.06 112.65 19.07 115.98 C 23.93 120.14 27.55 125.42 31.31 130.53 C 30.88 126.95 29.01 123.68 29.03 120.02 C 28.33 112.53 31.03 105.44 32.36 98.21 Z" />
<path fill="#ffffff" d=" M 195.58 136.85 C 192.67 124.16 191.69 110.25 197.07 98.07 C 198.06 105.06 200.90 111.78 200.37 118.96 C 200.70 122.99 198.37 126.53 198.19 130.48 C 200.01 128.18 201.51 125.65 203.35 123.36 C 208.49 116.54 216.37 112.01 219.96 104.00 C 218.71 118.25 209.00 131.66 195.58 136.85 Z" />
<path fill="#ffffff" d=" M 179.91 141.81 C 181.83 135.26 185.49 129.30 189.76 124.03 C 189.97 130.37 189.61 136.81 187.59 142.87 C 186.34 147.12 183.78 150.83 182.48 155.07 C 187.36 154.08 190.22 149.80 193.82 146.80 C 197.11 143.68 201.27 141.74 204.74 138.85 C 207.82 136.33 210.43 133.31 213.26 130.52 C 212.26 141.47 204.39 151.24 194.49 155.68 C 189.10 158.43 182.86 158.34 177.26 160.48 C 178.33 154.28 178.55 147.96 179.91 141.81 Z" />
<path fill="#ffffff" d=" M 39.69 123.87 C 43.74 129.20 47.38 134.99 49.35 141.43 C 50.82 147.69 51.05 154.14 52.26 160.44 C 46.47 158.33 40.05 158.41 34.53 155.51 C 24.73 151.13 17.15 141.31 16.24 130.52 C 20.88 135.29 25.49 140.25 31.41 143.49 C 37.11 146.62 40.24 153.53 46.86 155.00 C 45.58 151.14 43.37 147.67 42.10 143.81 C 39.87 137.43 39.39 130.58 39.69 123.87 Z" />
<path fill="#ffffff" d=" M 51.39 141.40 C 57.94 144.96 62.61 151.05 67.33 156.65 C 70.52 161.60 73.01 167.06 77.23 171.30 C 70.38 173.27 63.28 175.20 56.08 174.85 C 46.41 173.23 36.60 168.30 31.64 159.47 C 39.93 164.68 49.93 164.62 59.05 167.41 C 63.22 168.50 67.24 170.15 71.52 170.80 C 67.60 167.64 62.88 165.36 59.70 161.34 C 54.95 155.60 55.36 147.57 51.39 141.40 Z" />
<path fill="#ffffff" d=" M 161.87 156.82 C 166.67 151.15 171.40 144.96 178.07 141.40 C 174.82 146.43 174.31 152.52 171.86 157.87 C 168.99 163.94 162.77 167.08 157.60 170.88 C 165.51 169.27 173.05 166.13 181.08 164.95 C 186.93 164.21 192.55 162.34 197.72 159.50 C 192.66 168.28 182.84 173.33 173.08 174.85 C 165.94 175.21 158.90 173.23 152.10 171.27 C 156.32 167.14 158.98 161.87 161.87 156.82 Z" />
<path fill="#ffffff" d=" M 261.94 159.12 C 271.33 159.14 280.73 159.14 290.13 159.17 C 290.12 161.27 290.11 163.38 290.10 165.48 C 286.66 165.51 283.22 165.49 279.78 165.51 C 279.83 174.78 279.78 184.06 279.82 193.33 C 277.30 193.35 274.78 193.32 272.27 193.36 C 272.30 184.07 272.26 174.79 272.29 165.50 C 268.84 165.49 265.39 165.51 261.94 165.48 C 261.94 163.36 261.94 161.24 261.94 159.12 Z" />
<path fill="#ffffff" d=" M 357.58 159.12 C 360.12 159.13 362.66 159.16 365.21 159.19 C 365.29 167.03 365.02 174.88 365.36 182.70 C 365.79 187.84 372.31 188.72 376.16 187.02 C 378.59 186.08 379.06 183.23 379.17 180.95 C 379.24 173.69 379.21 166.43 379.19 159.17 C 381.70 159.16 384.21 159.15 386.73 159.13 C 386.64 166.99 386.84 174.86 386.64 182.73 C 386.43 187.73 382.77 192.22 377.92 193.44 C 372.61 194.80 366.33 194.62 361.85 191.13 C 358.81 188.71 357.55 184.71 357.56 180.94 C 357.52 173.67 357.58 166.39 357.58 159.12 Z" />
<path fill="#ffffff" d=" M 391.72 159.11 C 394.29 159.24 396.96 158.81 399.48 159.46 C 404.40 166.81 409.02 174.36 413.69 181.88 C 413.76 174.30 413.71 166.72 413.71 159.15 C 416.10 159.13 418.50 159.12 420.90 159.14 C 420.88 170.52 420.88 181.90 420.89 193.28 C 418.37 193.28 415.85 193.27 413.34 193.28 C 408.58 185.60 403.66 178.01 398.77 170.42 C 398.82 178.07 398.74 185.72 398.82 193.37 C 396.44 193.35 394.07 193.36 391.70 193.38 C 391.74 181.96 391.71 170.53 391.72 159.11 Z" />
<path fill="#ffffff" d=" M 436.11 159.19 C 442.75 159.27 449.39 159.07 456.03 159.24 C 459.51 159.32 462.76 161.70 464.00 164.93 C 465.77 169.37 464.09 174.76 459.83 177.08 C 465.86 180.36 463.41 187.96 465.37 193.37 C 462.83 193.30 460.30 193.32 457.78 193.31 C 456.66 189.17 458.13 183.71 454.53 180.64 C 451.08 179.42 447.29 180.05 443.71 180.09 C 443.72 184.50 443.72 188.90 443.72 193.31 C 441.18 193.30 438.64 193.27 436.11 193.28 C 436.12 181.91 436.13 170.55 436.11 159.19 Z" />
<path fill="#ffffff" d=" M 499.22 161.24 C 501.80 158.56 505.79 159.07 509.16 159.24 C 509.16 160.92 509.17 162.60 509.20 164.28 C 507.64 164.35 506.10 164.44 504.56 164.56 C 504.29 165.85 504.04 167.15 503.82 168.45 C 505.46 168.48 507.11 168.51 508.77 168.53 C 508.74 170.11 508.71 171.70 508.70 173.28 C 507.16 173.21 505.63 173.15 504.11 173.09 C 504.17 179.84 504.11 186.58 504.15 193.32 C 501.82 193.34 499.49 193.34 497.18 193.36 C 497.23 186.63 497.21 179.89 497.22 173.16 C 495.88 173.14 494.54 173.15 493.22 173.19 C 493.16 171.62 493.10 170.06 493.06 168.50 C 494.39 168.50 495.73 168.50 497.07 168.51 C 497.29 166.00 497.10 163.04 499.22 161.24 Z" />
<path fill="#ffffff" d=" M 640.14 159.21 C 642.78 159.13 645.41 159.13 648.06 159.11 C 652.29 170.51 656.59 181.89 660.81 193.29 C 658.17 193.31 655.53 193.29 652.89 193.31 C 652.03 190.78 651.16 188.25 650.28 185.72 C 646.07 185.71 641.86 185.72 637.66 185.71 C 636.72 188.24 635.82 190.77 634.95 193.32 C 632.36 193.36 629.77 193.32 627.20 193.31 C 631.56 181.96 635.86 170.58 640.14 159.21 Z" />
<path fill="#ffffff" d=" M 292.35 159.14 C 294.66 159.13 296.97 159.12 299.29 159.10 C 299.26 163.30 299.35 167.50 299.16 171.70 C 301.98 168.22 306.78 166.69 310.99 168.53 C 313.95 169.61 315.50 172.83 315.55 175.83 C 315.81 181.64 315.59 187.46 315.66 193.28 C 313.34 193.27 311.02 193.28 308.70 193.30 C 308.59 187.65 309.04 181.97 308.46 176.35 C 307.60 171.74 299.96 172.55 299.54 177.03 C 298.94 182.45 299.44 187.93 299.27 193.37 C 296.95 193.36 294.62 193.36 292.30 193.35 C 292.35 181.95 292.31 170.55 292.35 159.14 Z" />
<path fill="none" d=" M 443.73 164.94 C 447.37 164.99 451.08 164.70 454.68 165.46 C 458.18 167.02 457.84 173.42 454.01 174.30 C 450.59 174.73 447.14 174.43 443.71 174.49 C 443.72 171.31 443.71 168.12 443.73 164.94 Z" />
<path fill="#ffffff" d=" M 323.96 169.92 C 328.86 166.60 336.40 167.08 340.20 171.89 C 342.74 174.84 343.23 178.87 343.40 182.61 C 337.26 182.68 331.13 182.46 325.00 182.75 C 325.70 185.26 326.88 188.46 329.94 188.69 C 332.83 189.33 335.38 187.75 337.16 185.62 C 339.13 185.60 341.10 185.60 343.07 185.63 C 341.56 188.74 339.60 191.98 336.14 193.16 C 331.74 194.56 326.43 194.28 322.78 191.21 C 316.49 185.88 317.07 174.51 323.96 169.92 Z" />
<path fill="#ffffff" d=" M 470.59 172.52 C 474.88 166.78 484.59 166.13 489.38 171.57 C 492.00 174.61 492.68 178.69 492.81 182.58 C 486.67 182.68 480.54 182.55 474.41 182.69 C 475.19 184.86 475.70 187.86 478.38 188.46 C 481.47 189.53 484.67 188.15 486.56 185.61 C 488.53 185.61 490.51 185.58 492.49 185.57 C 491.03 188.53 489.29 191.72 486.03 192.99 C 480.59 195.09 473.31 194.00 469.99 188.80 C 467.00 183.92 467.10 177.14 470.59 172.52 Z" />
<path fill="#ffffff" d=" M 510.72 168.50 C 513.05 168.50 515.38 168.50 517.72 168.51 C 517.76 174.07 517.46 179.66 517.86 185.21 C 518.48 189.61 525.72 189.69 526.65 185.46 C 527.78 179.89 527.02 174.14 527.19 168.49 C 529.50 168.51 531.82 168.49 534.14 168.53 C 534.11 176.81 534.15 185.08 534.11 193.36 C 531.89 193.35 529.67 193.35 527.46 193.37 C 527.50 192.57 527.56 190.97 527.60 190.17 C 525.27 192.42 522.40 194.51 518.95 193.93 C 515.33 194.12 511.70 191.71 511.18 188.00 C 510.18 181.56 510.98 174.99 510.72 168.50 Z" />
<path fill="#ffffff" d=" M 540.29 171.27 C 544.09 166.61 552.10 166.60 555.62 171.62 C 555.55 170.84 555.42 169.28 555.35 168.50 C 557.54 168.50 559.75 168.50 561.95 168.54 C 561.75 176.96 562.06 185.40 561.77 193.83 C 561.45 199.66 555.33 202.94 550.02 202.68 C 544.71 203.23 538.64 200.45 537.78 194.68 C 539.99 194.67 542.21 194.65 544.43 194.63 C 546.09 197.79 550.03 199.01 553.17 197.22 C 555.83 195.42 555.26 191.85 555.66 189.10 C 551.78 193.38 544.38 194.02 540.38 189.61 C 536.22 184.58 536.18 176.35 540.29 171.27 Z" />
<path fill="#ffffff" d=" M 569.17 171.16 C 573.99 166.50 582.86 166.59 587.08 172.00 C 589.57 174.93 589.92 178.89 590.15 182.56 C 584.02 182.69 577.89 182.56 571.76 182.73 C 572.47 185.32 573.74 188.67 576.96 188.69 C 579.80 189.39 582.16 187.54 583.98 185.61 C 585.92 185.59 587.86 185.60 589.82 185.65 C 588.31 188.89 586.13 192.16 582.57 193.34 C 577.36 194.82 570.87 193.85 567.59 189.14 C 564.01 183.78 564.42 175.71 569.17 171.16 Z" />
<path fill="#ffffff" d=" M 597.17 170.02 C 602.01 166.70 609.38 167.00 613.34 171.58 C 616.01 174.56 616.64 178.68 616.74 182.54 C 610.64 182.69 604.53 182.57 598.43 182.69 C 599.15 184.47 599.27 186.84 601.13 187.90 C 604.29 189.81 608.47 188.57 610.52 185.60 C 612.48 185.60 614.44 185.58 616.41 185.60 C 614.95 188.77 612.96 192.08 609.45 193.24 C 605.42 194.39 600.72 194.31 597.12 191.96 C 589.93 187.10 590.08 174.90 597.17 170.02 Z" />
<path fill="none" d=" M 639.61 179.91 C 641.13 175.79 642.56 171.64 644.04 167.51 C 645.46 171.72 646.93 175.92 648.36 180.13 C 645.44 180.06 642.52 179.97 639.61 179.91 Z" />
<path fill="#ffffff" d=" M 665.65 169.77 C 669.98 166.46 676.37 167.44 679.70 171.70 C 679.51 170.92 679.13 169.35 678.94 168.57 C 681.20 168.50 683.47 168.50 685.75 168.49 C 685.65 176.64 685.80 184.79 685.68 192.94 C 685.66 196.75 683.15 200.32 679.58 201.65 C 673.08 204.20 663.18 202.71 661.51 194.74 C 663.73 194.70 665.96 194.65 668.20 194.60 C 669.72 197.31 672.94 199.03 675.98 197.68 C 679.50 196.56 679.16 192.15 679.42 189.21 C 675.11 194.02 666.31 193.82 662.99 188.02 C 659.97 182.32 660.34 174.01 665.65 169.77 Z" />
<path fill="#ffffff" d=" M 693.55 170.65 C 698.51 166.66 706.98 166.74 710.94 172.11 C 713.37 175.01 713.76 178.90 713.99 182.53 C 707.86 182.76 701.73 182.53 695.60 182.69 C 696.37 185.03 697.15 188.25 700.09 188.60 C 703.10 189.45 705.90 187.94 707.73 185.60 C 709.71 185.61 711.69 185.61 713.69 185.65 C 712.23 188.36 710.69 191.37 707.75 192.74 C 702.05 195.38 694.05 193.96 690.81 188.20 C 687.82 182.65 688.57 174.82 693.55 170.65 Z" />
<path fill="#ffffff" d=" M 723.05 171.71 C 725.62 169.05 729.24 166.95 733.07 167.95 C 736.30 168.29 739.28 170.71 739.62 174.06 C 740.37 180.44 740.03 186.90 739.92 193.31 C 737.64 193.33 735.37 193.36 733.10 193.38 C 732.89 187.61 733.64 181.76 732.65 176.06 C 731.51 171.79 724.48 172.63 723.86 176.88 C 723.22 182.33 723.73 187.85 723.59 193.33 C 721.26 193.34 718.93 193.35 716.61 193.36 C 716.65 185.07 716.69 176.78 716.65 168.50 C 718.85 168.50 721.07 168.50 723.29 168.52 C 723.23 169.32 723.11 170.91 723.05 171.71 Z" />
<path fill="#ffffff" d=" M 746.58 171.55 C 752.71 164.80 766.71 167.34 767.85 177.21 C 765.63 177.27 763.43 177.33 761.23 177.36 C 760.18 175.22 758.76 172.81 755.99 173.08 C 751.38 172.89 749.69 178.31 750.17 182.06 C 750.16 185.24 752.35 189.17 756.00 188.75 C 759.04 189.00 760.49 186.04 761.48 183.68 C 763.63 183.72 765.76 183.73 767.93 183.78 C 767.15 186.66 766.13 189.70 763.63 191.56 C 757.74 195.93 747.68 194.41 744.49 187.40 C 742.27 182.32 742.86 175.79 746.58 171.55 Z" />
<path fill="#ffffff" d=" M 767.66 168.49 C 770.14 168.50 772.62 168.50 775.11 168.51 C 776.94 174.17 778.76 179.84 780.76 185.45 C 782.44 179.77 784.33 174.16 786.09 168.51 C 788.48 168.50 790.87 168.50 793.28 168.50 C 789.45 178.35 786.13 188.40 782.07 198.15 C 779.93 202.60 774.27 202.27 770.13 201.82 C 770.10 199.97 770.09 198.13 770.07 196.28 C 772.60 196.53 777.20 196.80 776.66 192.97 C 774.00 184.71 770.66 176.64 767.66 168.49 Z" />
<path fill="none" d=" M 324.97 178.20 C 325.82 175.48 327.88 172.73 331.07 173.08 C 334.21 172.73 335.67 175.83 336.64 178.24 C 332.75 178.30 328.86 178.32 324.97 178.20 Z" />
<path fill="none" d=" M 474.34 178.24 C 475.29 175.34 477.56 172.41 481.02 173.13 C 483.97 172.99 485.09 176.01 486.05 178.23 C 482.15 178.31 478.24 178.31 474.34 178.24 Z" />
<path fill="none" d=" M 547.40 173.52 C 550.38 172.20 554.26 173.73 554.95 177.08 C 556.96 181.68 553.77 188.96 547.95 187.26 C 543.07 184.83 542.73 176.33 547.40 173.52 Z" />
<path fill="none" d=" M 571.72 178.24 C 572.65 175.91 574.02 173.10 576.96 173.14 C 580.36 172.33 582.58 175.33 583.39 178.23 C 579.50 178.31 575.61 178.30 571.72 178.24 Z" />
<path fill="none" d=" M 598.32 178.23 C 599.27 175.79 600.84 172.89 603.93 173.11 C 607.26 172.40 609.14 175.55 609.97 178.23 C 606.08 178.30 602.20 178.31 598.32 178.23 Z" />
<path fill="none" d=" M 671.32 173.45 C 673.53 172.76 676.55 172.92 677.85 175.15 C 680.50 179.20 679.61 186.75 673.93 187.47 C 666.97 187.66 665.97 176.33 671.32 173.45 Z" />
<path fill="none" d=" M 695.50 178.22 C 696.54 175.38 698.61 172.45 702.09 173.11 C 705.19 172.83 706.17 175.96 707.20 178.22 C 703.29 178.31 699.39 178.32 695.50 178.22 Z" />
<path fill="#ffffff" d=" M 65.72 179.82 C 76.63 175.69 88.38 174.23 100.00 174.33 C 105.10 174.35 110.04 175.72 115.00 176.76 C 131.74 172.19 149.76 174.48 165.88 180.41 C 170.30 182.00 175.04 181.95 179.67 181.87 C 177.02 184.99 172.80 185.34 169.04 185.99 C 160.38 187.19 151.42 186.46 143.15 183.60 C 135.41 181.04 127.53 178.04 119.23 178.49 C 127.42 182.05 135.11 187.00 141.00 193.78 C 140.02 194.20 139.03 194.61 138.05 195.02 C 131.68 188.23 124.43 181.23 115.03 179.24 C 105.49 181.15 98.21 188.30 91.70 195.08 C 90.62 194.94 89.55 194.37 89.20 193.28 C 95.24 186.88 102.65 181.90 110.74 178.49 C 102.47 178.01 94.59 180.99 86.88 183.58 C 76.36 187.12 64.78 187.55 54.08 184.55 C 52.49 184.19 51.43 182.84 50.22 181.87 C 55.46 182.09 60.80 181.81 65.72 179.82 Z" />
</svg>
